# xmcd
#
# Track frame offsets:
#	150
#	35008
#	54913
#	75463
#	109953
#	128300
#	151183
#	203271
#	228445
#
# Disc length: 3208 seconds
#
# Revision: 2
# Processed by: cddbd v1.4PL0 Copyright (c) Steve Scherf et al.
# Submitted via: audiograbber 1.81.03
#
DISCID=5d0c8609
DTITLE=Canned Heat &John Lee Hooker - Hooker`n Heat [CD2)
DYEAR=1970
DGENRE=Blues
TTITLE0=The World Today
TTITLE1=I Got My Eyes On You
TTITLE2=Whiskey And Wimmen
TTITLE3=Just You And Me
TTITLE4=Let`s Make It
TTITLE5=Peavine
TTITLE6=Boogie Children No. 2
TTITLE7=It`s All Right
TTITLE8=Wiskey And Wimmen(Single Version)
EXTD=
EXTT0=
EXTT1=
EXTT2=
EXTT3=
EXTT4=
EXTT5=
EXTT6=
EXTT7=
EXTT8=
PLAYORDER=
